<mxfile host="app.diagrams.net" modified="2020-09-03T08:10:23.322Z" agent="5.0 (Windows NT 10.0; Win64; x64) AppleWebKit/537.36 (KHTML, like Gecko) Chrome/80.0.3987.149 Safari/537.36" etag="SYrZZBIfluTlUgBTwfCG" version="13.6.4" type="github">
  <diagram id="C5RBs43oDa-KdzZeNtuy" name="Page-1">
    <mxGraphModel dx="896" dy="544" grid="1" gridSize="10" guides="1" tooltips="1" connect="1" arrows="1" fold="1" page="1" pageScale="1" pageWidth="2339" pageHeight="3300" math="0" shadow="0">
      <root>
        <mxCell id="WIyWlLk6GJQsqaUBKTNV-0" />
        <mxCell id="WIyWlLk6GJQsqaUBKTNV-1" parent="WIyWlLk6GJQsqaUBKTNV-0" />
        <mxCell id="WIyWlLk6GJQsqaUBKTNV-2" value="" style="rounded=0;html=1;jettySize=auto;orthogonalLoop=1;fontSize=11;endArrow=block;endFill=0;endSize=8;strokeWidth=1;shadow=0;labelBackgroundColor=none;edgeStyle=orthogonalEdgeStyle;" parent="WIyWlLk6GJQsqaUBKTNV-1" source="WIyWlLk6GJQsqaUBKTNV-3" target="z7IMCoyECMKBZn62GKqQ-1" edge="1">
          <mxGeometry relative="1" as="geometry">
            <mxPoint x="220" y="170" as="targetPoint" />
          </mxGeometry>
        </mxCell>
        <mxCell id="WIyWlLk6GJQsqaUBKTNV-3" value="AnimationManager&lt;br&gt;Update" style="rounded=1;whiteSpace=wrap;html=1;fontSize=12;glass=0;strokeWidth=1;shadow=0;" parent="WIyWlLk6GJQsqaUBKTNV-1" vertex="1">
          <mxGeometry x="160" y="80" width="120" height="40" as="geometry" />
        </mxCell>
        <mxCell id="WIyWlLk6GJQsqaUBKTNV-8" value="N" style="rounded=0;html=1;jettySize=auto;orthogonalLoop=1;fontSize=11;endArrow=block;endFill=0;endSize=8;strokeWidth=1;shadow=0;labelBackgroundColor=none;edgeStyle=orthogonalEdgeStyle;exitX=1;exitY=0.5;exitDx=0;exitDy=0;entryX=0.5;entryY=0;entryDx=0;entryDy=0;" parent="WIyWlLk6GJQsqaUBKTNV-1" source="z7IMCoyECMKBZn62GKqQ-1" target="WIyWlLk6GJQsqaUBKTNV-11" edge="1">
          <mxGeometry x="0.3333" y="20" relative="1" as="geometry">
            <mxPoint as="offset" />
            <mxPoint x="220" y="480" as="sourcePoint" />
            <Array as="points">
              <mxPoint x="350" y="170" />
              <mxPoint x="350" y="520" />
              <mxPoint x="220" y="520" />
            </Array>
          </mxGeometry>
        </mxCell>
        <mxCell id="WIyWlLk6GJQsqaUBKTNV-11" value="End" style="rounded=1;whiteSpace=wrap;html=1;fontSize=12;glass=0;strokeWidth=1;shadow=0;" parent="WIyWlLk6GJQsqaUBKTNV-1" vertex="1">
          <mxGeometry x="160" y="540" width="120" height="40" as="geometry" />
        </mxCell>
        <mxCell id="z7IMCoyECMKBZn62GKqQ-4" style="edgeStyle=orthogonalEdgeStyle;rounded=0;orthogonalLoop=1;jettySize=auto;html=1;exitX=0.5;exitY=1;exitDx=0;exitDy=0;entryX=0.5;entryY=0;entryDx=0;entryDy=0;" parent="WIyWlLk6GJQsqaUBKTNV-1" source="z7IMCoyECMKBZn62GKqQ-0" target="z7IMCoyECMKBZn62GKqQ-3" edge="1">
          <mxGeometry relative="1" as="geometry" />
        </mxCell>
        <mxCell id="z7IMCoyECMKBZn62GKqQ-0" value="SyncLayerTime" style="rounded=1;whiteSpace=wrap;html=1;" parent="WIyWlLk6GJQsqaUBKTNV-1" vertex="1">
          <mxGeometry x="160" y="220" width="120" height="30" as="geometry" />
        </mxCell>
        <mxCell id="z7IMCoyECMKBZn62GKqQ-2" style="edgeStyle=orthogonalEdgeStyle;rounded=0;orthogonalLoop=1;jettySize=auto;html=1;exitX=0.5;exitY=1;exitDx=0;exitDy=0;" parent="WIyWlLk6GJQsqaUBKTNV-1" source="z7IMCoyECMKBZn62GKqQ-1" target="z7IMCoyECMKBZn62GKqQ-0" edge="1">
          <mxGeometry relative="1" as="geometry" />
        </mxCell>
        <mxCell id="z7IMCoyECMKBZn62GKqQ-1" value="While(Animation List isn&#39;t Empty)" style="rhombus;whiteSpace=wrap;html=1;" parent="WIyWlLk6GJQsqaUBKTNV-1" vertex="1">
          <mxGeometry x="110" y="150" width="220" height="40" as="geometry" />
        </mxCell>
        <mxCell id="z7IMCoyECMKBZn62GKqQ-19" style="edgeStyle=orthogonalEdgeStyle;rounded=0;orthogonalLoop=1;jettySize=auto;html=1;exitX=0.5;exitY=1;exitDx=0;exitDy=0;" parent="WIyWlLk6GJQsqaUBKTNV-1" source="z7IMCoyECMKBZn62GKqQ-3" target="z7IMCoyECMKBZn62GKqQ-18" edge="1">
          <mxGeometry relative="1" as="geometry" />
        </mxCell>
        <mxCell id="z7IMCoyECMKBZn62GKqQ-3" value="Update Animation state" style="rounded=1;whiteSpace=wrap;html=1;" parent="WIyWlLk6GJQsqaUBKTNV-1" vertex="1">
          <mxGeometry x="135" y="280" width="170" height="30" as="geometry" />
        </mxCell>
        <mxCell id="z7IMCoyECMKBZn62GKqQ-9" style="edgeStyle=orthogonalEdgeStyle;rounded=0;orthogonalLoop=1;jettySize=auto;html=1;exitX=0.5;exitY=1;exitDx=0;exitDy=0;entryX=0.5;entryY=0;entryDx=0;entryDy=0;" parent="WIyWlLk6GJQsqaUBKTNV-1" source="z7IMCoyECMKBZn62GKqQ-6" target="z7IMCoyECMKBZn62GKqQ-8" edge="1">
          <mxGeometry relative="1" as="geometry" />
        </mxCell>
        <mxCell id="z7IMCoyECMKBZn62GKqQ-6" value="Samlpe Clip &amp;amp;&amp;nbsp;&lt;br&gt;Write Transform" style="rounded=1;whiteSpace=wrap;html=1;" parent="WIyWlLk6GJQsqaUBKTNV-1" vertex="1">
          <mxGeometry x="135" y="408" width="170" height="30" as="geometry" />
        </mxCell>
        <mxCell id="z7IMCoyECMKBZn62GKqQ-13" style="edgeStyle=orthogonalEdgeStyle;rounded=0;orthogonalLoop=1;jettySize=auto;html=1;exitX=0;exitY=0.5;exitDx=0;exitDy=0;entryX=0;entryY=0.5;entryDx=0;entryDy=0;" parent="WIyWlLk6GJQsqaUBKTNV-1" source="z7IMCoyECMKBZn62GKqQ-8" target="z7IMCoyECMKBZn62GKqQ-1" edge="1">
          <mxGeometry relative="1" as="geometry" />
        </mxCell>
        <mxCell id="z7IMCoyECMKBZn62GKqQ-8" value="SetTransformsSetDirty" style="rounded=1;whiteSpace=wrap;html=1;" parent="WIyWlLk6GJQsqaUBKTNV-1" vertex="1">
          <mxGeometry x="135" y="468" width="170" height="30" as="geometry" />
        </mxCell>
        <mxCell id="z7IMCoyECMKBZn62GKqQ-16" value="Y" style="text;html=1;strokeColor=none;fillColor=none;align=center;verticalAlign=middle;whiteSpace=wrap;rounded=0;" parent="WIyWlLk6GJQsqaUBKTNV-1" vertex="1">
          <mxGeometry x="220" y="190" width="40" height="20" as="geometry" />
        </mxCell>
        <mxCell id="z7IMCoyECMKBZn62GKqQ-20" style="edgeStyle=orthogonalEdgeStyle;rounded=0;orthogonalLoop=1;jettySize=auto;html=1;exitX=0.5;exitY=1;exitDx=0;exitDy=0;entryX=0.5;entryY=0;entryDx=0;entryDy=0;" parent="WIyWlLk6GJQsqaUBKTNV-1" source="z7IMCoyECMKBZn62GKqQ-18" target="z7IMCoyECMKBZn62GKqQ-6" edge="1">
          <mxGeometry relative="1" as="geometry" />
        </mxCell>
        <mxCell id="z7IMCoyECMKBZn62GKqQ-21" style="edgeStyle=orthogonalEdgeStyle;rounded=0;orthogonalLoop=1;jettySize=auto;html=1;exitX=0;exitY=0.5;exitDx=0;exitDy=0;entryX=0;entryY=0.5;entryDx=0;entryDy=0;" parent="WIyWlLk6GJQsqaUBKTNV-1" source="z7IMCoyECMKBZn62GKqQ-18" target="z7IMCoyECMKBZn62GKqQ-1" edge="1">
          <mxGeometry relative="1" as="geometry" />
        </mxCell>
        <mxCell id="z7IMCoyECMKBZn62GKqQ-18" value="if(Animation Need Update)" style="rhombus;whiteSpace=wrap;html=1;" parent="WIyWlLk6GJQsqaUBKTNV-1" vertex="1">
          <mxGeometry x="110" y="340" width="220" height="40" as="geometry" />
        </mxCell>
        <mxCell id="z7IMCoyECMKBZn62GKqQ-22" value="Y" style="text;html=1;strokeColor=none;fillColor=none;align=center;verticalAlign=middle;whiteSpace=wrap;rounded=0;" parent="WIyWlLk6GJQsqaUBKTNV-1" vertex="1">
          <mxGeometry x="220" y="380" width="40" height="20" as="geometry" />
        </mxCell>
        <mxCell id="z7IMCoyECMKBZn62GKqQ-23" value="N" style="text;html=1;strokeColor=none;fillColor=none;align=center;verticalAlign=middle;whiteSpace=wrap;rounded=0;" parent="WIyWlLk6GJQsqaUBKTNV-1" vertex="1">
          <mxGeometry x="90" y="330" width="40" height="20" as="geometry" />
        </mxCell>
        <mxCell id="z7IMCoyECMKBZn62GKqQ-24" value="" style="rounded=0;html=1;jettySize=auto;orthogonalLoop=1;fontSize=11;endArrow=block;endFill=0;endSize=8;strokeWidth=1;shadow=0;labelBackgroundColor=none;edgeStyle=orthogonalEdgeStyle;" parent="WIyWlLk6GJQsqaUBKTNV-1" source="z7IMCoyECMKBZn62GKqQ-25" target="z7IMCoyECMKBZn62GKqQ-31" edge="1">
          <mxGeometry relative="1" as="geometry">
            <mxPoint x="600" y="180" as="targetPoint" />
          </mxGeometry>
        </mxCell>
        <mxCell id="z7IMCoyECMKBZn62GKqQ-25" value="AnimationManager&lt;br&gt;Update" style="rounded=1;whiteSpace=wrap;html=1;fontSize=12;glass=0;strokeWidth=1;shadow=0;" parent="WIyWlLk6GJQsqaUBKTNV-1" vertex="1">
          <mxGeometry x="540" y="90" width="120" height="40" as="geometry" />
        </mxCell>
        <mxCell id="z7IMCoyECMKBZn62GKqQ-27" value="End" style="rounded=1;whiteSpace=wrap;html=1;fontSize=12;glass=0;strokeWidth=1;shadow=0;" parent="WIyWlLk6GJQsqaUBKTNV-1" vertex="1">
          <mxGeometry x="540" y="640" width="120" height="40" as="geometry" />
        </mxCell>
        <mxCell id="z7IMCoyECMKBZn62GKqQ-28" style="edgeStyle=orthogonalEdgeStyle;rounded=0;orthogonalLoop=1;jettySize=auto;html=1;exitX=0.5;exitY=1;exitDx=0;exitDy=0;entryX=0.5;entryY=0;entryDx=0;entryDy=0;" parent="WIyWlLk6GJQsqaUBKTNV-1" source="z7IMCoyECMKBZn62GKqQ-29" target="z7IMCoyECMKBZn62GKqQ-33" edge="1">
          <mxGeometry relative="1" as="geometry" />
        </mxCell>
        <mxCell id="z7IMCoyECMKBZn62GKqQ-29" value="SyncLayerTime" style="rounded=1;whiteSpace=wrap;html=1;" parent="WIyWlLk6GJQsqaUBKTNV-1" vertex="1">
          <mxGeometry x="540" y="220" width="120" height="30" as="geometry" />
        </mxCell>
        <mxCell id="z7IMCoyECMKBZn62GKqQ-30" style="edgeStyle=orthogonalEdgeStyle;rounded=0;orthogonalLoop=1;jettySize=auto;html=1;exitX=0.5;exitY=1;exitDx=0;exitDy=0;" parent="WIyWlLk6GJQsqaUBKTNV-1" source="z7IMCoyECMKBZn62GKqQ-31" target="z7IMCoyECMKBZn62GKqQ-29" edge="1">
          <mxGeometry relative="1" as="geometry" />
        </mxCell>
        <mxCell id="z7IMCoyECMKBZn62GKqQ-98" style="edgeStyle=orthogonalEdgeStyle;rounded=0;orthogonalLoop=1;jettySize=auto;html=1;exitX=0;exitY=0.5;exitDx=0;exitDy=0;" parent="WIyWlLk6GJQsqaUBKTNV-1" source="z7IMCoyECMKBZn62GKqQ-31" target="z7IMCoyECMKBZn62GKqQ-69" edge="1">
          <mxGeometry relative="1" as="geometry">
            <Array as="points">
              <mxPoint x="480" y="180" />
              <mxPoint x="480" y="460" />
              <mxPoint x="600" y="460" />
            </Array>
          </mxGeometry>
        </mxCell>
        <mxCell id="z7IMCoyECMKBZn62GKqQ-31" value="While(Animation List isn&#39;t Empty)" style="rhombus;whiteSpace=wrap;html=1;" parent="WIyWlLk6GJQsqaUBKTNV-1" vertex="1">
          <mxGeometry x="500" y="160" width="200" height="40" as="geometry" />
        </mxCell>
        <mxCell id="z7IMCoyECMKBZn62GKqQ-32" style="edgeStyle=orthogonalEdgeStyle;rounded=0;orthogonalLoop=1;jettySize=auto;html=1;exitX=0.5;exitY=1;exitDx=0;exitDy=0;" parent="WIyWlLk6GJQsqaUBKTNV-1" source="z7IMCoyECMKBZn62GKqQ-33" target="z7IMCoyECMKBZn62GKqQ-41" edge="1">
          <mxGeometry relative="1" as="geometry" />
        </mxCell>
        <mxCell id="z7IMCoyECMKBZn62GKqQ-33" value="Update Animation state" style="rounded=1;whiteSpace=wrap;html=1;" parent="WIyWlLk6GJQsqaUBKTNV-1" vertex="1">
          <mxGeometry x="515" y="270" width="170" height="30" as="geometry" />
        </mxCell>
        <mxCell id="z7IMCoyECMKBZn62GKqQ-38" value="Y" style="text;html=1;strokeColor=none;fillColor=none;align=center;verticalAlign=middle;whiteSpace=wrap;rounded=0;" parent="WIyWlLk6GJQsqaUBKTNV-1" vertex="1">
          <mxGeometry x="590" y="570" width="40" height="20" as="geometry" />
        </mxCell>
        <mxCell id="z7IMCoyECMKBZn62GKqQ-67" style="edgeStyle=orthogonalEdgeStyle;rounded=0;orthogonalLoop=1;jettySize=auto;html=1;exitX=0.5;exitY=1;exitDx=0;exitDy=0;" parent="WIyWlLk6GJQsqaUBKTNV-1" source="z7IMCoyECMKBZn62GKqQ-41" target="z7IMCoyECMKBZn62GKqQ-65" edge="1">
          <mxGeometry relative="1" as="geometry" />
        </mxCell>
        <mxCell id="z7IMCoyECMKBZn62GKqQ-41" value="if(Animation Need Update)" style="rhombus;whiteSpace=wrap;html=1;" parent="WIyWlLk6GJQsqaUBKTNV-1" vertex="1">
          <mxGeometry x="505" y="320" width="190" height="40" as="geometry" />
        </mxCell>
        <mxCell id="z7IMCoyECMKBZn62GKqQ-42" value="Y" style="text;html=1;strokeColor=none;fillColor=none;align=center;verticalAlign=middle;whiteSpace=wrap;rounded=0;" parent="WIyWlLk6GJQsqaUBKTNV-1" vertex="1">
          <mxGeometry x="610" y="390" width="40" height="20" as="geometry" />
        </mxCell>
        <mxCell id="z7IMCoyECMKBZn62GKqQ-43" value="N" style="text;html=1;strokeColor=none;fillColor=none;align=center;verticalAlign=middle;whiteSpace=wrap;rounded=0;" parent="WIyWlLk6GJQsqaUBKTNV-1" vertex="1">
          <mxGeometry x="680" y="350" width="40" height="20" as="geometry" />
        </mxCell>
        <mxCell id="z7IMCoyECMKBZn62GKqQ-65" value="Create a Job for&amp;nbsp;&lt;br&gt;Sampling Clip" style="rounded=1;whiteSpace=wrap;html=1;" parent="WIyWlLk6GJQsqaUBKTNV-1" vertex="1">
          <mxGeometry x="510" y="380" width="180" height="30" as="geometry" />
        </mxCell>
        <mxCell id="z7IMCoyECMKBZn62GKqQ-68" value="Worker Thread" style="rounded=1;whiteSpace=wrap;html=1;fontSize=12;glass=0;strokeWidth=1;shadow=0;" parent="WIyWlLk6GJQsqaUBKTNV-1" vertex="1">
          <mxGeometry x="875" y="90" width="120" height="40" as="geometry" />
        </mxCell>
        <mxCell id="z7IMCoyECMKBZn62GKqQ-73" style="edgeStyle=orthogonalEdgeStyle;rounded=0;orthogonalLoop=1;jettySize=auto;html=1;exitX=0.5;exitY=1;exitDx=0;exitDy=0;entryX=0.5;entryY=0;entryDx=0;entryDy=0;" parent="WIyWlLk6GJQsqaUBKTNV-1" source="z7IMCoyECMKBZn62GKqQ-69" target="z7IMCoyECMKBZn62GKqQ-72" edge="1">
          <mxGeometry relative="1" as="geometry" />
        </mxCell>
        <mxCell id="z7IMCoyECMKBZn62GKqQ-69" value="WaitForJobGroup" style="rounded=1;whiteSpace=wrap;html=1;" parent="WIyWlLk6GJQsqaUBKTNV-1" vertex="1">
          <mxGeometry x="540" y="430" width="120" height="60" as="geometry" />
        </mxCell>
        <mxCell id="z7IMCoyECMKBZn62GKqQ-118" value="" style="edgeStyle=orthogonalEdgeStyle;rounded=0;orthogonalLoop=1;jettySize=auto;html=1;" parent="WIyWlLk6GJQsqaUBKTNV-1" source="z7IMCoyECMKBZn62GKqQ-72" target="z7IMCoyECMKBZn62GKqQ-117" edge="1">
          <mxGeometry relative="1" as="geometry" />
        </mxCell>
        <mxCell id="z7IMCoyECMKBZn62GKqQ-121" style="edgeStyle=orthogonalEdgeStyle;rounded=0;orthogonalLoop=1;jettySize=auto;html=1;exitX=0;exitY=0.5;exitDx=0;exitDy=0;entryX=0;entryY=0.5;entryDx=0;entryDy=0;" parent="WIyWlLk6GJQsqaUBKTNV-1" source="z7IMCoyECMKBZn62GKqQ-72" target="z7IMCoyECMKBZn62GKqQ-27" edge="1">
          <mxGeometry relative="1" as="geometry">
            <Array as="points">
              <mxPoint x="480" y="540" />
              <mxPoint x="480" y="660" />
            </Array>
          </mxGeometry>
        </mxCell>
        <mxCell id="z7IMCoyECMKBZn62GKqQ-72" value="While(Animation Need Update&lt;br&gt;&amp;nbsp;List isn&#39;t Empty)" style="rhombus;whiteSpace=wrap;html=1;" parent="WIyWlLk6GJQsqaUBKTNV-1" vertex="1">
          <mxGeometry x="500" y="510" width="200" height="60" as="geometry" />
        </mxCell>
        <mxCell id="z7IMCoyECMKBZn62GKqQ-75" value="Job Queue" style="rounded=1;whiteSpace=wrap;html=1;" parent="WIyWlLk6GJQsqaUBKTNV-1" vertex="1">
          <mxGeometry x="730" y="180" width="60" height="280" as="geometry" />
        </mxCell>
        <mxCell id="z7IMCoyECMKBZn62GKqQ-78" style="edgeStyle=orthogonalEdgeStyle;rounded=0;orthogonalLoop=1;jettySize=auto;html=1;exitX=0.5;exitY=1;exitDx=0;exitDy=0;" parent="WIyWlLk6GJQsqaUBKTNV-1" source="z7IMCoyECMKBZn62GKqQ-75" target="z7IMCoyECMKBZn62GKqQ-75" edge="1">
          <mxGeometry relative="1" as="geometry" />
        </mxCell>
        <mxCell id="z7IMCoyECMKBZn62GKqQ-79" value="" style="shape=singleArrow;whiteSpace=wrap;html=1;arrowWidth=0.30434782608695654;arrowSize=0.35;" parent="WIyWlLk6GJQsqaUBKTNV-1" vertex="1">
          <mxGeometry x="690" y="383.5" width="40" height="23" as="geometry" />
        </mxCell>
        <mxCell id="z7IMCoyECMKBZn62GKqQ-109" style="edgeStyle=orthogonalEdgeStyle;rounded=0;orthogonalLoop=1;jettySize=auto;html=1;exitX=0.5;exitY=1;exitDx=0;exitDy=0;" parent="WIyWlLk6GJQsqaUBKTNV-1" source="z7IMCoyECMKBZn62GKqQ-81" target="z7IMCoyECMKBZn62GKqQ-88" edge="1">
          <mxGeometry relative="1" as="geometry" />
        </mxCell>
        <mxCell id="z7IMCoyECMKBZn62GKqQ-81" value="if(Try to get a Job)" style="rhombus;whiteSpace=wrap;html=1;" parent="WIyWlLk6GJQsqaUBKTNV-1" vertex="1">
          <mxGeometry x="840" y="170" width="190" height="60" as="geometry" />
        </mxCell>
        <mxCell id="z7IMCoyECMKBZn62GKqQ-84" value="" style="rounded=0;html=1;jettySize=auto;orthogonalLoop=1;fontSize=11;endArrow=block;endFill=0;endSize=8;strokeWidth=1;shadow=0;labelBackgroundColor=none;edgeStyle=orthogonalEdgeStyle;exitX=0.5;exitY=1;exitDx=0;exitDy=0;entryX=0.5;entryY=0;entryDx=0;entryDy=0;" parent="WIyWlLk6GJQsqaUBKTNV-1" source="z7IMCoyECMKBZn62GKqQ-68" target="z7IMCoyECMKBZn62GKqQ-81" edge="1">
          <mxGeometry relative="1" as="geometry">
            <mxPoint x="610" y="170" as="targetPoint" />
            <mxPoint x="610" y="140" as="sourcePoint" />
          </mxGeometry>
        </mxCell>
        <mxCell id="z7IMCoyECMKBZn62GKqQ-107" style="edgeStyle=orthogonalEdgeStyle;rounded=0;orthogonalLoop=1;jettySize=auto;html=1;exitX=0.5;exitY=0;exitDx=0;exitDy=0;" parent="WIyWlLk6GJQsqaUBKTNV-1" source="z7IMCoyECMKBZn62GKqQ-85" edge="1">
          <mxGeometry relative="1" as="geometry">
            <mxPoint x="1000" y="490" as="targetPoint" />
          </mxGeometry>
        </mxCell>
        <mxCell id="z7IMCoyECMKBZn62GKqQ-115" style="edgeStyle=orthogonalEdgeStyle;rounded=0;orthogonalLoop=1;jettySize=auto;html=1;exitX=1;exitY=0.5;exitDx=0;exitDy=0;entryX=1;entryY=0.5;entryDx=0;entryDy=0;" parent="WIyWlLk6GJQsqaUBKTNV-1" source="z7IMCoyECMKBZn62GKqQ-85" target="z7IMCoyECMKBZn62GKqQ-81" edge="1">
          <mxGeometry relative="1" as="geometry" />
        </mxCell>
        <mxCell id="z7IMCoyECMKBZn62GKqQ-85" value="Exce a Job" style="rounded=1;whiteSpace=wrap;html=1;" parent="WIyWlLk6GJQsqaUBKTNV-1" vertex="1">
          <mxGeometry x="940" y="460" width="120" height="30" as="geometry" />
        </mxCell>
        <mxCell id="z7IMCoyECMKBZn62GKqQ-87" style="edgeStyle=orthogonalEdgeStyle;rounded=0;orthogonalLoop=1;jettySize=auto;html=1;exitX=0.5;exitY=1;exitDx=0;exitDy=0;" parent="WIyWlLk6GJQsqaUBKTNV-1" edge="1">
          <mxGeometry relative="1" as="geometry">
            <mxPoint x="1009" y="528" as="sourcePoint" />
            <mxPoint x="1009" y="528" as="targetPoint" />
          </mxGeometry>
        </mxCell>
        <mxCell id="z7IMCoyECMKBZn62GKqQ-91" style="edgeStyle=orthogonalEdgeStyle;rounded=0;orthogonalLoop=1;jettySize=auto;html=1;exitX=0.5;exitY=1;exitDx=0;exitDy=0;" parent="WIyWlLk6GJQsqaUBKTNV-1" source="z7IMCoyECMKBZn62GKqQ-88" target="z7IMCoyECMKBZn62GKqQ-90" edge="1">
          <mxGeometry relative="1" as="geometry" />
        </mxCell>
        <mxCell id="z7IMCoyECMKBZn62GKqQ-106" style="edgeStyle=orthogonalEdgeStyle;rounded=0;orthogonalLoop=1;jettySize=auto;html=1;exitX=0.5;exitY=1;exitDx=0;exitDy=0;entryX=0.5;entryY=0;entryDx=0;entryDy=0;" parent="WIyWlLk6GJQsqaUBKTNV-1" source="z7IMCoyECMKBZn62GKqQ-88" target="z7IMCoyECMKBZn62GKqQ-85" edge="1">
          <mxGeometry relative="1" as="geometry" />
        </mxCell>
        <mxCell id="z7IMCoyECMKBZn62GKqQ-88" value="if( Semaphore Signal&amp;nbsp;Job)" style="rhombus;whiteSpace=wrap;html=1;" parent="WIyWlLk6GJQsqaUBKTNV-1" vertex="1">
          <mxGeometry x="840" y="300" width="190" height="60" as="geometry" />
        </mxCell>
        <mxCell id="z7IMCoyECMKBZn62GKqQ-113" style="edgeStyle=orthogonalEdgeStyle;rounded=0;orthogonalLoop=1;jettySize=auto;html=1;exitX=0.5;exitY=1;exitDx=0;exitDy=0;entryX=1;entryY=0.5;entryDx=0;entryDy=0;" parent="WIyWlLk6GJQsqaUBKTNV-1" source="z7IMCoyECMKBZn62GKqQ-90" target="z7IMCoyECMKBZn62GKqQ-81" edge="1">
          <mxGeometry relative="1" as="geometry">
            <Array as="points">
              <mxPoint x="870" y="500" />
              <mxPoint x="1080" y="500" />
              <mxPoint x="1080" y="200" />
            </Array>
          </mxGeometry>
        </mxCell>
        <mxCell id="z7IMCoyECMKBZn62GKqQ-90" value="Semaphore Signal&amp;nbsp;" style="rounded=1;whiteSpace=wrap;html=1;" parent="WIyWlLk6GJQsqaUBKTNV-1" vertex="1">
          <mxGeometry x="810" y="460" width="120" height="30" as="geometry" />
        </mxCell>
        <mxCell id="z7IMCoyECMKBZn62GKqQ-92" value="" style="shape=singleArrow;direction=west;whiteSpace=wrap;html=1;arrowWidth=0.4;arrowSize=0.05;" parent="WIyWlLk6GJQsqaUBKTNV-1" vertex="1">
          <mxGeometry x="660" y="465" width="150" height="20" as="geometry" />
        </mxCell>
        <mxCell id="z7IMCoyECMKBZn62GKqQ-97" style="edgeStyle=orthogonalEdgeStyle;rounded=0;orthogonalLoop=1;jettySize=auto;html=1;exitX=1;exitY=0.5;exitDx=0;exitDy=0;entryX=1;entryY=0.5;entryDx=0;entryDy=0;" parent="WIyWlLk6GJQsqaUBKTNV-1" source="z7IMCoyECMKBZn62GKqQ-41" target="z7IMCoyECMKBZn62GKqQ-31" edge="1">
          <mxGeometry relative="1" as="geometry">
            <mxPoint x="120" y="370" as="sourcePoint" />
            <mxPoint x="120" y="180" as="targetPoint" />
          </mxGeometry>
        </mxCell>
        <mxCell id="z7IMCoyECMKBZn62GKqQ-99" value="N" style="text;html=1;strokeColor=none;fillColor=none;align=center;verticalAlign=middle;whiteSpace=wrap;rounded=0;" parent="WIyWlLk6GJQsqaUBKTNV-1" vertex="1">
          <mxGeometry x="955" y="380" width="40" height="20" as="geometry" />
        </mxCell>
        <mxCell id="z7IMCoyECMKBZn62GKqQ-103" value="" style="shape=singleArrow;whiteSpace=wrap;html=1;arrowWidth=0.30434782608695654;arrowSize=0.2;" parent="WIyWlLk6GJQsqaUBKTNV-1" vertex="1">
          <mxGeometry x="660" y="438" width="70" height="23" as="geometry" />
        </mxCell>
        <mxCell id="z7IMCoyECMKBZn62GKqQ-108" value="" style="shape=singleArrow;whiteSpace=wrap;html=1;arrowWidth=0.30434782608695654;arrowSize=0.35;" parent="WIyWlLk6GJQsqaUBKTNV-1" vertex="1">
          <mxGeometry x="790" y="187" width="50" height="23" as="geometry" />
        </mxCell>
        <mxCell id="z7IMCoyECMKBZn62GKqQ-112" value="Y" style="text;html=1;strokeColor=none;fillColor=none;align=center;verticalAlign=middle;whiteSpace=wrap;rounded=0;" parent="WIyWlLk6GJQsqaUBKTNV-1" vertex="1">
          <mxGeometry x="875" y="380" width="40" height="20" as="geometry" />
        </mxCell>
        <mxCell id="z7IMCoyECMKBZn62GKqQ-120" style="edgeStyle=orthogonalEdgeStyle;rounded=0;orthogonalLoop=1;jettySize=auto;html=1;exitX=1;exitY=0.5;exitDx=0;exitDy=0;entryX=1;entryY=0.5;entryDx=0;entryDy=0;" parent="WIyWlLk6GJQsqaUBKTNV-1" source="z7IMCoyECMKBZn62GKqQ-117" target="z7IMCoyECMKBZn62GKqQ-72" edge="1">
          <mxGeometry relative="1" as="geometry">
            <Array as="points">
              <mxPoint x="720" y="595" />
              <mxPoint x="720" y="540" />
            </Array>
          </mxGeometry>
        </mxCell>
        <mxCell id="z7IMCoyECMKBZn62GKqQ-117" value="Write Transform &amp;amp;&lt;br&gt;SetTransformsSetDirty" style="rounded=1;whiteSpace=wrap;html=1;" parent="WIyWlLk6GJQsqaUBKTNV-1" vertex="1">
          <mxGeometry x="515" y="590" width="170" height="30" as="geometry" />
        </mxCell>
        <mxCell id="z7IMCoyECMKBZn62GKqQ-122" value="N" style="text;html=1;strokeColor=none;fillColor=none;align=center;verticalAlign=middle;whiteSpace=wrap;rounded=0;" parent="WIyWlLk6GJQsqaUBKTNV-1" vertex="1">
          <mxGeometry x="470" y="520" width="40" height="20" as="geometry" />
        </mxCell>
        <mxCell id="z7IMCoyECMKBZn62GKqQ-123" value="Y" style="text;html=1;strokeColor=none;fillColor=none;align=center;verticalAlign=middle;whiteSpace=wrap;rounded=0;" parent="WIyWlLk6GJQsqaUBKTNV-1" vertex="1">
          <mxGeometry x="600" y="200" width="40" height="20" as="geometry" />
        </mxCell>
        <mxCell id="z7IMCoyECMKBZn62GKqQ-124" value="N" style="text;html=1;strokeColor=none;fillColor=none;align=center;verticalAlign=middle;whiteSpace=wrap;rounded=0;" parent="WIyWlLk6GJQsqaUBKTNV-1" vertex="1">
          <mxGeometry x="475" y="160" width="40" height="20" as="geometry" />
        </mxCell>
        <mxCell id="z7IMCoyECMKBZn62GKqQ-125" value="Y" style="text;html=1;strokeColor=none;fillColor=none;align=center;verticalAlign=middle;whiteSpace=wrap;rounded=0;" parent="WIyWlLk6GJQsqaUBKTNV-1" vertex="1">
          <mxGeometry x="930" y="250" width="40" height="20" as="geometry" />
        </mxCell>
        <mxCell id="z7IMCoyECMKBZn62GKqQ-130" value="Y" style="text;html=1;strokeColor=none;fillColor=none;align=center;verticalAlign=middle;whiteSpace=wrap;rounded=0;" parent="WIyWlLk6GJQsqaUBKTNV-1" vertex="1">
          <mxGeometry x="600" y="360" width="40" height="20" as="geometry" />
        </mxCell>
        <mxCell id="z7IMCoyECMKBZn62GKqQ-136" value="" style="rounded=0;html=1;jettySize=auto;orthogonalLoop=1;fontSize=11;endArrow=block;endFill=0;endSize=8;strokeWidth=1;shadow=0;labelBackgroundColor=none;edgeStyle=orthogonalEdgeStyle;" parent="WIyWlLk6GJQsqaUBKTNV-1" source="z7IMCoyECMKBZn62GKqQ-137" target="z7IMCoyECMKBZn62GKqQ-143" edge="1">
          <mxGeometry relative="1" as="geometry">
            <mxPoint x="600" y="850" as="targetPoint" />
          </mxGeometry>
        </mxCell>
        <mxCell id="z7IMCoyECMKBZn62GKqQ-137" value="AnimationManager&lt;br&gt;Update" style="rounded=1;whiteSpace=wrap;html=1;fontSize=12;glass=0;strokeWidth=1;shadow=0;" parent="WIyWlLk6GJQsqaUBKTNV-1" vertex="1">
          <mxGeometry x="540" y="760" width="120" height="40" as="geometry" />
        </mxCell>
        <mxCell id="z7IMCoyECMKBZn62GKqQ-138" value="End" style="rounded=1;whiteSpace=wrap;html=1;fontSize=12;glass=0;strokeWidth=1;shadow=0;" parent="WIyWlLk6GJQsqaUBKTNV-1" vertex="1">
          <mxGeometry x="770" y="1250" width="120" height="40" as="geometry" />
        </mxCell>
        <mxCell id="z7IMCoyECMKBZn62GKqQ-139" style="edgeStyle=orthogonalEdgeStyle;rounded=0;orthogonalLoop=1;jettySize=auto;html=1;exitX=0.5;exitY=1;exitDx=0;exitDy=0;entryX=0.5;entryY=0;entryDx=0;entryDy=0;" parent="WIyWlLk6GJQsqaUBKTNV-1" source="z7IMCoyECMKBZn62GKqQ-140" target="z7IMCoyECMKBZn62GKqQ-145" edge="1">
          <mxGeometry relative="1" as="geometry" />
        </mxCell>
        <mxCell id="z7IMCoyECMKBZn62GKqQ-140" value="SyncLayerTime" style="rounded=1;whiteSpace=wrap;html=1;" parent="WIyWlLk6GJQsqaUBKTNV-1" vertex="1">
          <mxGeometry x="540" y="890" width="120" height="30" as="geometry" />
        </mxCell>
        <mxCell id="z7IMCoyECMKBZn62GKqQ-141" style="edgeStyle=orthogonalEdgeStyle;rounded=0;orthogonalLoop=1;jettySize=auto;html=1;exitX=0.5;exitY=1;exitDx=0;exitDy=0;" parent="WIyWlLk6GJQsqaUBKTNV-1" source="z7IMCoyECMKBZn62GKqQ-143" target="z7IMCoyECMKBZn62GKqQ-140" edge="1">
          <mxGeometry relative="1" as="geometry" />
        </mxCell>
        <mxCell id="z7IMCoyECMKBZn62GKqQ-143" value="While(Animation List isn&#39;t Empty)" style="rhombus;whiteSpace=wrap;html=1;" parent="WIyWlLk6GJQsqaUBKTNV-1" vertex="1">
          <mxGeometry x="500" y="830" width="200" height="40" as="geometry" />
        </mxCell>
        <mxCell id="z7IMCoyECMKBZn62GKqQ-144" style="edgeStyle=orthogonalEdgeStyle;rounded=0;orthogonalLoop=1;jettySize=auto;html=1;exitX=0.5;exitY=1;exitDx=0;exitDy=0;" parent="WIyWlLk6GJQsqaUBKTNV-1" source="z7IMCoyECMKBZn62GKqQ-145" target="z7IMCoyECMKBZn62GKqQ-148" edge="1">
          <mxGeometry relative="1" as="geometry" />
        </mxCell>
        <mxCell id="z7IMCoyECMKBZn62GKqQ-145" value="Update Animation state" style="rounded=1;whiteSpace=wrap;html=1;" parent="WIyWlLk6GJQsqaUBKTNV-1" vertex="1">
          <mxGeometry x="515" y="940" width="170" height="30" as="geometry" />
        </mxCell>
        <mxCell id="z7IMCoyECMKBZn62GKqQ-146" value="Y" style="text;html=1;strokeColor=none;fillColor=none;align=center;verticalAlign=middle;whiteSpace=wrap;rounded=0;" parent="WIyWlLk6GJQsqaUBKTNV-1" vertex="1">
          <mxGeometry x="820" y="1180" width="40" height="20" as="geometry" />
        </mxCell>
        <mxCell id="z7IMCoyECMKBZn62GKqQ-147" style="edgeStyle=orthogonalEdgeStyle;rounded=0;orthogonalLoop=1;jettySize=auto;html=1;exitX=0.5;exitY=1;exitDx=0;exitDy=0;" parent="WIyWlLk6GJQsqaUBKTNV-1" source="z7IMCoyECMKBZn62GKqQ-148" target="z7IMCoyECMKBZn62GKqQ-151" edge="1">
          <mxGeometry relative="1" as="geometry" />
        </mxCell>
        <mxCell id="z7IMCoyECMKBZn62GKqQ-148" value="if(Animation Need Update)" style="rhombus;whiteSpace=wrap;html=1;" parent="WIyWlLk6GJQsqaUBKTNV-1" vertex="1">
          <mxGeometry x="505" y="990" width="190" height="40" as="geometry" />
        </mxCell>
        <mxCell id="z7IMCoyECMKBZn62GKqQ-149" value="Y" style="text;html=1;strokeColor=none;fillColor=none;align=center;verticalAlign=middle;whiteSpace=wrap;rounded=0;" parent="WIyWlLk6GJQsqaUBKTNV-1" vertex="1">
          <mxGeometry x="610" y="1060" width="40" height="20" as="geometry" />
        </mxCell>
        <mxCell id="z7IMCoyECMKBZn62GKqQ-150" value="N" style="text;html=1;strokeColor=none;fillColor=none;align=center;verticalAlign=middle;whiteSpace=wrap;rounded=0;" parent="WIyWlLk6GJQsqaUBKTNV-1" vertex="1">
          <mxGeometry x="680" y="1020" width="40" height="20" as="geometry" />
        </mxCell>
        <mxCell id="z7IMCoyECMKBZn62GKqQ-188" style="edgeStyle=orthogonalEdgeStyle;rounded=0;orthogonalLoop=1;jettySize=auto;html=1;exitX=0;exitY=0.5;exitDx=0;exitDy=0;entryX=0;entryY=0.5;entryDx=0;entryDy=0;" parent="WIyWlLk6GJQsqaUBKTNV-1" source="z7IMCoyECMKBZn62GKqQ-151" target="z7IMCoyECMKBZn62GKqQ-143" edge="1">
          <mxGeometry relative="1" as="geometry" />
        </mxCell>
        <mxCell id="z7IMCoyECMKBZn62GKqQ-151" value="Add To Job Animation List by&lt;br&gt;Transform" style="rounded=1;whiteSpace=wrap;html=1;" parent="WIyWlLk6GJQsqaUBKTNV-1" vertex="1">
          <mxGeometry x="510" y="1050" width="180" height="30" as="geometry" />
        </mxCell>
        <mxCell id="z7IMCoyECMKBZn62GKqQ-190" style="edgeStyle=orthogonalEdgeStyle;rounded=0;orthogonalLoop=1;jettySize=auto;html=1;exitX=0.5;exitY=1;exitDx=0;exitDy=0;" parent="WIyWlLk6GJQsqaUBKTNV-1" source="z7IMCoyECMKBZn62GKqQ-154" target="z7IMCoyECMKBZn62GKqQ-157" edge="1">
          <mxGeometry relative="1" as="geometry" />
        </mxCell>
        <mxCell id="z7IMCoyECMKBZn62GKqQ-154" value="WaitForJobGroup" style="rounded=1;whiteSpace=wrap;html=1;" parent="WIyWlLk6GJQsqaUBKTNV-1" vertex="1">
          <mxGeometry x="770" y="1040" width="120" height="60" as="geometry" />
        </mxCell>
        <mxCell id="z7IMCoyECMKBZn62GKqQ-155" value="" style="edgeStyle=orthogonalEdgeStyle;rounded=0;orthogonalLoop=1;jettySize=auto;html=1;" parent="WIyWlLk6GJQsqaUBKTNV-1" source="z7IMCoyECMKBZn62GKqQ-157" target="z7IMCoyECMKBZn62GKqQ-180" edge="1">
          <mxGeometry relative="1" as="geometry" />
        </mxCell>
        <mxCell id="z7IMCoyECMKBZn62GKqQ-156" style="edgeStyle=orthogonalEdgeStyle;rounded=0;orthogonalLoop=1;jettySize=auto;html=1;exitX=0;exitY=0.5;exitDx=0;exitDy=0;entryX=0;entryY=0.5;entryDx=0;entryDy=0;" parent="WIyWlLk6GJQsqaUBKTNV-1" source="z7IMCoyECMKBZn62GKqQ-157" target="z7IMCoyECMKBZn62GKqQ-138" edge="1">
          <mxGeometry relative="1" as="geometry">
            <Array as="points">
              <mxPoint x="710" y="1150" />
              <mxPoint x="710" y="1270" />
            </Array>
          </mxGeometry>
        </mxCell>
        <mxCell id="z7IMCoyECMKBZn62GKqQ-157" value="While(Animation Need Update&lt;br&gt;&amp;nbsp;List isn&#39;t Empty)" style="rhombus;whiteSpace=wrap;html=1;" parent="WIyWlLk6GJQsqaUBKTNV-1" vertex="1">
          <mxGeometry x="730" y="1120" width="200" height="60" as="geometry" />
        </mxCell>
        <mxCell id="z7IMCoyECMKBZn62GKqQ-179" style="edgeStyle=orthogonalEdgeStyle;rounded=0;orthogonalLoop=1;jettySize=auto;html=1;exitX=1;exitY=0.5;exitDx=0;exitDy=0;entryX=1;entryY=0.5;entryDx=0;entryDy=0;" parent="WIyWlLk6GJQsqaUBKTNV-1" source="z7IMCoyECMKBZn62GKqQ-180" target="z7IMCoyECMKBZn62GKqQ-157" edge="1">
          <mxGeometry relative="1" as="geometry">
            <Array as="points">
              <mxPoint x="950" y="1205" />
              <mxPoint x="950" y="1150" />
            </Array>
          </mxGeometry>
        </mxCell>
        <mxCell id="z7IMCoyECMKBZn62GKqQ-180" value="SetTransformsSetDirty" style="rounded=1;whiteSpace=wrap;html=1;" parent="WIyWlLk6GJQsqaUBKTNV-1" vertex="1">
          <mxGeometry x="745" y="1200" width="170" height="30" as="geometry" />
        </mxCell>
        <mxCell id="z7IMCoyECMKBZn62GKqQ-182" value="Y" style="text;html=1;strokeColor=none;fillColor=none;align=center;verticalAlign=middle;whiteSpace=wrap;rounded=0;" parent="WIyWlLk6GJQsqaUBKTNV-1" vertex="1">
          <mxGeometry x="600" y="870" width="40" height="20" as="geometry" />
        </mxCell>
        <mxCell id="z7IMCoyECMKBZn62GKqQ-185" value="Y" style="text;html=1;strokeColor=none;fillColor=none;align=center;verticalAlign=middle;whiteSpace=wrap;rounded=0;" parent="WIyWlLk6GJQsqaUBKTNV-1" vertex="1">
          <mxGeometry x="600" y="1030" width="40" height="20" as="geometry" />
        </mxCell>
      </root>
    </mxGraphModel>
  </diagram>
</mxfile>
